HIERARCHY
ROOT Hips
{
	OFFSET 0.00000 0.00000 0.00000
	CHANNELS 6 Xposition Yposition Zposition Zrotation Yrotation Xrotation 
	JOINT LHipJoint
	{
		OFFSET 0 0 0
		CHANNELS 3 Zrotation Yrotation Xrotation
		JOINT LeftHip
		{
			OFFSET 1.17584 -1.63585 1.00361
			CHANNELS 3 Zrotation Yrotation Xrotation
			JOINT LeftKnee
			{
				OFFSET 2.23889 -6.15131 0.00000
				CHANNELS 3 Zrotation Yrotation Xrotation
				JOINT LeftAnkle
				{
					OFFSET 2.65161 -7.28525 0.00000
					CHANNELS 3 Zrotation Yrotation Xrotation
					JOINT LeftToe
					{
						OFFSET 0.24898 -0.68407 1.57235
						CHANNELS 3 Zrotation Yrotation Xrotation
						End Site
						{
							OFFSET 0.00000 -0.00000 0.85838
						}
					}
				}
			}
		}
	}
	JOINT RHipJoint
	{
		OFFSET 0 0 0
		CHANNELS 3 Zrotation Yrotation Xrotation
		JOINT RightHip
		{
			OFFSET -1.15592 -1.63585 1.00361
			CHANNELS 3 Zrotation Yrotation Xrotation
			JOINT RightKnee
			{
				OFFSET -2.34071 -6.43104 0.00000
				CHANNELS 3 Zrotation Yrotation Xrotation
				JOINT RightAnkle
				{
					OFFSET -2.59113 -7.11908 0.00000
					CHANNELS 3 Zrotation Yrotation Xrotation
					JOINT RightToe
					{
						OFFSET -0.17867 -0.49089 1.70981
						CHANNELS 3 Zrotation Yrotation Xrotation
						End Site
						{
							OFFSET -0.00000 -0.00000 0.89861
						}
					}
				}
			}
		}
	}
	JOINT lowerback
	{
		OFFSET 0 0 0
		CHANNELS 3 Zrotation Yrotation Xrotation
		JOINT Chest
		{
			OFFSET -0.02255 1.90764 -0.16605
			CHANNELS 3 Zrotation Yrotation Xrotation
			JOINT Chest2
			{
				OFFSET -0.00365 1.92150 -0.04898
				CHANNELS 3 Zrotation Yrotation Xrotation
				JOINT lowerneck
				{
					OFFSET 0 0 0
					CHANNELS 3 Zrotation Yrotation Xrotation
					JOINT Neck
					{
						OFFSET 0.00372 1.59170 0.08694
						CHANNELS 3 Zrotation Yrotation Xrotation
						JOINT Head
						{
							OFFSET 0.12558 1.58643 -0.08078
							CHANNELS 3 Zrotation Yrotation Xrotation
							End Site
							{
								OFFSET 0.04211 1.60835 -0.03803
							}
						}
					}
				}
				JOINT LeftCollar
				{
					OFFSET 0 0 0
					CHANNELS 3 Zrotation Yrotation Xrotation
					JOINT LeftShoulder
					{
						OFFSET 3.69324 0.96316 0.19077
CHANNELS 3 Zrotation Xrotation Yrotation
						JOINT LeftElbow
						{
OFFSET 0 -4.877960 -0.000000
CHANNELS 3 Zrotation Xrotation Yrotation
							JOINT LeftWrist
							{
OFFSET 0 -3.231690 0.000000
CHANNELS 3 Zrotation Xrotation Yrotation
								JOINT lhand
								{
									OFFSET 0 0 0
CHANNELS 3 Zrotation Xrotation Yrotation
									JOINT LFingers
									{
OFFSET 0 -0.731320 0.000000
CHANNELS 3 Zrotation Xrotation Yrotation
										End Site
										{
OFFSET 0 -0.589610 0.000000
										}
									}
								}
								JOINT LThumb
								{
OFFSET 0 0.000000 0.000000
CHANNELS 3 Zrotation Xrotation Yrotation
									End Site
									{
OFFSET 0 -0.598610 0.598610
									}
								}
							}
						}
					}
				}
				JOINT RightCollar
				{
					OFFSET 0 0 0
					CHANNELS 3 Zrotation Yrotation Xrotation
					JOINT RightShoulder
					{
						OFFSET -3.66103 0.75145 0.08281
CHANNELS 3 Zrotation Xrotation Yrotation
						JOINT RightElbow
						{
OFFSET 0 -4.914300 0.000000
CHANNELS 3 Zrotation Xrotation Yrotation
							JOINT RightWrist
							{
OFFSET 0 -3.290930 0.000000
CHANNELS 3 Zrotation Xrotation Yrotation
								JOINT rhand
								{
									OFFSET 0 0 0
CHANNELS 3 Zrotation Xrotation Yrotation
									JOINT RFingers
									{
OFFSET 0 -0.545120 0.000000
CHANNELS 3 Zrotation Xrotation Yrotation
										End Site
										{
OFFSET 0 -0.439490 0.000000
										}
									}
								}
								JOINT RThumb
								{
OFFSET 0 0.000000 0.000000
CHANNELS 3 Zrotation Xrotation Yrotation
									End Site
									{
OFFSET 0 -0.446200 0.446200
									}
								}
							}
						}
					}
				}
			}
		}
	}
}
MOTION
Frames: 7
Frame Time: 0.008333333333333333
16.577134 15.528538 -0.992827 182.484252 -31.473767 -162.039902 0.000000 0.000000 0.000000 -35.290454 16.852025 -17.694772 4.473772 12.765096 38.496028 0.723399 -13.358378 -16.654218 3.318659 -11.193833 -32.936258 0.000000 0.000000 0.000000 0.705892 26.991506 -62.145014 -8.209875 -16.271453 53.315013 0.115177 10.375396 -5.236379 -0.601338 4.962851 -13.802897 -0.727242 -5.314582 7.889876 2.299291 -7.621834 6.282199 3.166778 -4.088972 2.540313 2.077306 10.280755 -2.199493 -10.434987 12.441053 -12.735756 -3.956886 6.201484 -2.905767 0.000000 0.000000 0.000000 25.362623 -35.244863 -45.536103 97.828837 -59.766960 66.774695 31.137149 -14.173858 39.045053 0.000000 0.000000 0.000000 -7.125000 0.000000 0.000000 -2.026844 -13.455580 -2.444130 0.000000 0.000000 0.000000 -10.053145 -29.130711 50.532632 -111.030597 -58.260882 -78.106673 -43.295608 24.152478 26.980427 0.000000 0.000000 0.000000 7.125000 0.000000 0.000000 -17.545427 64.127006 8.254077
16.607329 15.315184 -0.838926 183.310631 -27.796510 -161.226748 0.000000 0.000000 0.000000 -39.781461 19.962921 -14.235765 1.871077 8.591105 24.524961 0.968728 -12.510645 -18.412092 1.841450 -8.524845 -24.321586 0.000000 0.000000 0.000000 -0.053771 29.716715 -66.308699 -8.958150 -16.780747 55.945439 0.078657 6.959369 -2.654340 -0.093535 -1.955433 5.383345 -1.340416 -6.133911 7.513084 3.847733 -8.907176 6.477969 5.067522 -4.857159 3.402678 1.418572 11.132619 -2.295041 -10.562306 13.552498 -12.749447 -3.869919 6.760746 -2.854721 0.000000 0.000000 0.000000 39.694746 -38.431556 -36.001586 86.074433 -59.940960 56.600993 34.224446 -19.455657 39.275194 0.000000 0.000000 0.000000 -7.125000 0.000000 0.000000 -0.533050 -14.702447 -0.650863 0.000000 0.000000 0.000000 -9.376664 -37.379657 50.181547 -100.880345 -59.547475 -69.408392 -42.108064 23.186049 26.141381 0.000000 0.000000 0.000000 7.125000 0.000000 0.000000 -15.710954 62.793810 6.878706
16.606532 15.201322 -0.709347 183.376918 -25.614561 -161.006683 0.000000 0.000000 0.000000 -42.403729 20.606973 -8.788090 0.569976 4.831039 13.427867 1.145658 -12.855078 -19.860335 0.214082 -2.973044 -8.204089 0.000000 0.000000 0.000000 -1.787599 31.838830 -67.659651 -9.095666 -16.868921 56.420394 0.056804 5.482607 -1.726519 -0.964005 -6.248249 17.507481 -1.848426 -6.680369 7.584461 4.302543 -9.810204 6.916364 5.797771 -5.410857 4.105410 2.471722 10.485376 -2.185099 -9.778887 13.967428 -12.801103 -3.820602 7.546988 -2.856563 0.000000 0.000000 0.000000 56.011321 -39.282173 -29.278121 72.378323 -58.792007 44.801245 36.159033 -22.444862 39.699884 0.000000 0.000000 0.000000 -7.125000 0.000000 0.000000 0.307755 -15.818333 0.379998 0.000000 0.000000 0.000000 -6.954210 -42.980295 49.547898 -91.871099 -59.986300 -61.620270 -39.982390 22.799949 27.115954 0.000000 0.000000 0.000000 7.125000 0.000000 0.000000 -12.704291 63.298566 5.687578
16.590189 15.023499 -0.629573 183.751861 -24.033673 -160.913013 0.000000 0.000000 0.000000 -44.070935 24.596349 -2.542837 0.000000 0.000000 0.000000 1.202865 -13.393211 -20.407272 0.000547 -0.139003 -0.382009 0.000000 0.000000 0.000000 -3.375966 33.406441 -69.272305 -9.330361 -17.015609 57.225702 0.063234 7.376589 -3.569536 -0.155084 2.479980 -6.838386 -1.575199 -6.901572 7.319963 4.473327 -10.151568 7.039395 5.780123 -5.596794 4.412106 3.738050 10.198303 -1.469777 -8.925728 13.639924 -12.940453 -3.814276 7.296003 -3.032104 0.000000 0.000000 0.000000 68.015772 -38.469136 -27.666583 60.342369 -56.399551 34.626357 36.154146 -21.250467 40.618158 0.000000 0.000000 0.000000 -7.125000 0.000000 0.000000 0.027692 -16.747836 0.034422 0.000000 0.000000 0.000000 -5.221229 -45.728556 48.744315 -84.775384 -59.896335 -55.477003 -37.623832 23.362860 28.897384 0.000000 0.000000 0.000000 7.125000 0.000000 0.000000 -9.176697 64.629926 4.377018
16.535404 14.853866 -0.607868 184.338907 -22.707589 -160.566703 0.000000 0.000000 0.000000 -45.259404 25.497744 -3.796706 0.000000 0.000000 0.000000 1.930110 -14.529899 -25.453965 0.015132 0.794769 2.184294 0.000000 0.000000 0.000000 -3.654340 33.831979 -71.065982 -9.688315 -17.230769 58.441383 -0.094412 9.439863 -8.170109 -2.251221 9.370375 -26.961279 -0.903996 -6.781747 6.659264 4.762682 -9.990891 6.961416 5.630329 -5.495490 4.613251 4.636251 9.637918 -1.429643 -8.519061 12.948471 -12.862614 -3.834151 6.897770 -3.031209 0.000000 0.000000 0.000000 72.392021 -37.180351 -29.435160 54.931084 -54.800435 30.159672 32.368073 -15.033360 42.096710 0.000000 0.000000 0.000000 -7.125000 0.000000 0.000000 -2.254475 -16.917112 -2.814800 0.000000 0.000000 0.000000 -5.983473 -45.877778 47.610819 -81.602261 -59.731878 -52.733833 -34.997144 23.103581 30.420727 0.000000 0.000000 0.000000 7.125000 0.000000 0.000000 -5.080391 65.545470 2.524517
16.450436 14.787822 -0.643637 184.545319 -22.007297 -160.205539 0.000000 0.000000 0.000000 -45.896437 25.963429 -4.414843 0.000000 0.000000 0.000000 2.056933 -15.080087 -26.311280 0.025278 1.027041 2.823140 0.000000 0.000000 0.000000 -3.286175 33.434156 -71.605513 -9.858777 -17.329675 59.015405 -0.251591 10.336668 -10.769303 -2.349915 9.559089 -27.560911 -0.374714 -6.324997 6.244233 4.814885 -9.360680 6.910877 5.347239 -5.150106 4.637338 5.669694 8.955753 -1.590159 -8.342478 12.131761 -13.234414 -3.973930 6.471989 -3.142446 0.000000 0.000000 0.000000 70.222720 -36.475474 -33.494120 55.782917 -55.076919 30.857021 29.772886 -11.920931 43.678639 0.000000 0.000000 0.000000 -7.125000 0.000000 0.000000 -3.952130 -17.652944 -4.974103 0.000000 0.000000 0.000000 -8.164955 -42.562088 45.784874 -84.503938 -59.884941 -55.242177 -31.231704 20.356034 30.799411 0.000000 0.000000 0.000000 7.125000 0.000000 0.000000 0.188857 64.861575 -0.090130
16.345594 14.819459 -0.726493 184.047588 -22.695346 -160.031743 0.000000 0.000000 0.000000 -45.554107 25.687025 -3.442629 0.000000 0.000000 0.000000 1.477287 -15.487136 -22.811095 0.018470 0.877566 2.412097 0.000000 0.000000 0.000000 -3.384097 32.407885 -70.663554 -9.861923 -17.331470 59.025773 -0.234548 9.977841 -10.396470 -1.417923 7.528384 -21.291571 0.438198 -5.847238 6.151505 4.463332 -8.660047 6.970719 4.526770 -4.735890 4.492657 6.599788 8.265384 -1.677762 -8.300532 11.259787 -14.498883 -3.792727 6.050102 -3.191555 0.000000 0.000000 0.000000 62.974225 -35.928739 -40.339771 59.643092 -56.213718 34.044319 30.230787 -14.688742 43.998068 0.000000 0.000000 0.000000 -7.125000 0.000000 0.000000 -3.827470 -18.107949 -4.836243 0.000000 0.000000 0.000000 -9.903744 -35.634401 44.054169 -91.425661 -59.991460 -61.234596 -29.127584 16.776905 29.587701 0.000000 0.000000 0.000000 7.125000 0.000000 0.000000 2.290959 62.989236 -1.001010
